<?xml version="1.0" encoding="UTF-8"?>
<!DOCTYPE svg PUBLIC "-//W3C//DTD SVG 1.1//EN" "http://www.w3.org/Graphics/SVG/1.1/DTD/svg11.dtd">
<svg xmlns="http://www.w3.org/2000/svg" version="1.1" width="512px" height="512px" style="shape-rendering:geometricPrecision; text-rendering:geometricPrecision; image-rendering:optimizeQuality; fill-rule:evenodd; clip-rule:evenodd" xmlns:xlink="http://www.w3.org/1999/xlink">
<g><path style="opacity:0.994" fill="#5299d3" d="M 349.5,194.5 C 350.296,189.853 350.963,185.186 351.5,180.5C 352.164,178.022 352.497,175.355 352.5,172.5C 351.767,152.174 351.267,131.841 351,111.5C 347.59,104.533 342.09,100.033 334.5,98C 306.395,90.222 277.729,86.722 248.5,87.5C 223.575,86.9904 199.242,90.4904 175.5,98C 168.457,100.379 163.29,104.879 160,111.5C 159.632,134.506 159.132,157.506 158.5,180.5C 159.5,185.167 160.5,189.833 161.5,194.5C 142.167,185.833 122.833,177.167 103.5,168.5C 103.5,143.833 103.5,119.167 103.5,94.5C 152.648,68.0913 201.981,41.9246 251.5,16C 254.167,15.3333 256.833,15.3333 259.5,16C 330.557,52.9428 401.057,90.7762 471,129.5C 472.227,133.591 471.394,137.091 468.5,140C 428.812,158.178 389.145,176.345 349.5,194.5 Z"/></g>
<g><path style="opacity:1" fill="#74acdb" d="M 248.5,87.5 C 230.288,88.6538 212.288,91.8205 194.5,97C 188.238,99.3765 182.738,102.877 178,107.5C 177.333,108.833 176.667,110.167 176,111.5C 175.171,129.671 175.338,147.671 176.5,165.5C 175.833,166.167 175.167,166.833 174.5,167.5C 169.167,171.833 163.833,176.167 158.5,180.5C 159.132,157.506 159.632,134.506 160,111.5C 163.29,104.879 168.457,100.379 175.5,98C 199.242,90.4904 223.575,86.9904 248.5,87.5 Z"/></g>
<g><path style="opacity:1" fill="#9fc6e6" d="M 248.5,87.5 C 277.729,86.722 306.395,90.222 334.5,98C 342.09,100.033 347.59,104.533 351,111.5C 351.267,131.841 351.767,152.174 352.5,172.5C 352.497,175.355 352.164,178.022 351.5,180.5C 340.24,167.196 325.907,159.029 308.5,156C 269.96,148.006 231.627,148.672 193.5,158C 187.572,159.965 181.906,162.465 176.5,165.5C 175.338,147.671 175.171,129.671 176,111.5C 176.667,110.167 177.333,108.833 178,107.5C 182.738,102.877 188.238,99.3765 194.5,97C 212.288,91.8205 230.288,88.6538 248.5,87.5 Z"/></g>
<g><path style="opacity:1" fill="#edeeee" d="M 103.5,94.5 C 103.5,119.167 103.5,143.833 103.5,168.5C 103.5,178.833 103.5,189.167 103.5,199.5C 102.5,199.5 101.5,199.5 100.5,199.5C 95.8333,199.5 91.1667,199.5 86.5,199.5C 86.5,186.5 86.5,173.5 86.5,160.5C 87.497,141.674 87.8303,122.674 87.5,103.5C 92.7982,100.515 98.1315,97.5155 103.5,94.5 Z"/></g>
<g><path style="opacity:0.982" fill="#5299d3" d="M 87.5,103.5 C 87.8303,122.674 87.497,141.674 86.5,160.5C 71.9798,153.407 57.3131,146.574 42.5,140C 38.5,135.667 38.5,131.333 42.5,127C 57.5536,119.141 72.5536,111.308 87.5,103.5 Z"/></g>
<g><path style="opacity:0.998" fill="#366287" d="M 351.5,180.5 C 350.963,185.186 350.296,189.853 349.5,194.5C 347.035,201.296 343.702,207.629 339.5,213.5C 337.78,211.342 336.947,208.675 337,205.5C 335.773,203.274 333.939,201.774 331.5,201C 312.5,200.667 293.5,200.333 274.5,200C 255.934,194.765 245.101,182.598 242,163.5C 237.667,159.5 233.333,159.5 229,163.5C 226.167,190.16 211.334,202.493 184.5,200.5C 183.167,200.5 181.833,200.5 180.5,200.5C 175.977,190.004 173.977,179.004 174.5,167.5C 175.167,166.833 175.833,166.167 176.5,165.5C 181.906,162.465 187.572,159.965 193.5,158C 231.627,148.672 269.96,148.006 308.5,156C 325.907,159.029 340.24,167.196 351.5,180.5 Z"/></g>
<g><path style="opacity:0.997" fill="#fecba9" d="M 339.5,213.5 C 361.309,221.117 368.809,236.117 362,258.5C 356.046,270.738 346.213,277.404 332.5,278.5C 326.488,293.167 317.155,305.167 304.5,314.5C 281.379,330.289 256.379,334.122 229.5,326C 202.441,310.739 187.275,287.572 184,256.5C 183.192,237.79 183.359,219.123 184.5,200.5C 211.334,202.493 226.167,190.16 229,163.5C 233.333,159.5 237.667,159.5 242,163.5C 245.101,182.598 255.934,194.765 274.5,200C 293.5,200.333 312.5,200.667 331.5,201C 333.939,201.774 335.773,203.274 337,205.5C 336.947,208.675 337.78,211.342 339.5,213.5 Z"/></g>
<g><path style="opacity:1" fill="#2d5271" d="M 174.5,167.5 C 173.977,179.004 175.977,190.004 180.5,200.5C 178.321,200.84 176.488,201.84 175,203.5C 173.826,207.046 173.16,210.713 173,214.5C 172.617,213.944 172.117,213.611 171.5,213.5C 167.298,207.629 163.965,201.296 161.5,194.5C 160.5,189.833 159.5,185.167 158.5,180.5C 163.833,176.167 169.167,171.833 174.5,167.5 Z"/></g>
<g><path style="opacity:1" fill="#ecb200" d="M 86.5,199.5 C 91.1667,199.5 95.8333,199.5 100.5,199.5C 98.525,200.646 97.025,202.313 96,204.5C 95.3333,230.5 95.3333,256.5 96,282.5C 97.3597,285.023 99.193,287.023 101.5,288.5C 95.0749,288.87 88.7416,288.37 82.5,287C 81.2986,286.097 80.4652,284.931 80,283.5C 79.3333,256.833 79.3333,230.167 80,203.5C 81.2725,200.778 83.4392,199.444 86.5,199.5 Z"/></g>
<g><path style="opacity:0.992" fill="#fec927" d="M 100.5,199.5 C 101.5,199.5 102.5,199.5 103.5,199.5C 106.961,199.146 109.461,200.479 111,203.5C 111.667,230.167 111.667,256.833 111,283.5C 108.961,287.136 105.794,288.802 101.5,288.5C 99.193,287.023 97.3597,285.023 96,282.5C 95.3333,256.5 95.3333,230.5 96,204.5C 97.025,202.313 98.525,200.646 100.5,199.5 Z"/></g>
<g><path style="opacity:1" fill="#feb889" d="M 180.5,200.5 C 181.833,200.5 183.167,200.5 184.5,200.5C 183.359,219.123 183.192,237.79 184,256.5C 187.275,287.572 202.441,310.739 229.5,326C 256.379,334.122 281.379,330.289 304.5,314.5C 304.5,319.5 304.5,324.5 304.5,329.5C 304.167,330.167 303.833,330.833 303.5,331.5C 288.825,340.501 272.825,345.501 255.5,346.5C 238.049,345.904 222.049,340.904 207.5,331.5C 207.167,330.833 206.833,330.167 206.5,329.5C 206.666,324.489 206.499,319.489 206,314.5C 193.637,304.967 184.47,292.967 178.5,278.5C 150.936,272.709 141.436,256.375 150,229.5C 154.893,221.134 162.06,215.801 171.5,213.5C 172.117,213.611 172.617,213.944 173,214.5C 173.16,210.713 173.826,207.046 175,203.5C 176.488,201.84 178.321,200.84 180.5,200.5 Z"/></g>
<g><path style="opacity:0.999" fill="#9fc6e6" d="M 206.5,329.5 C 206.833,330.167 207.167,330.833 207.5,331.5C 223.146,347.812 239.146,363.812 255.5,379.5C 271.854,363.812 287.854,347.812 303.5,331.5C 303.833,330.833 304.167,330.167 304.5,329.5C 308.723,327.099 313.056,326.932 317.5,329C 325.036,336.368 332.369,343.868 339.5,351.5C 344.044,355.758 344.544,360.425 341,365.5C 322.5,384 304,402.5 285.5,421C 281.5,424.333 277.5,424.333 273.5,421C 267.652,414.985 261.652,409.152 255.5,403.5C 248.65,410.184 241.65,416.684 234.5,423C 231.697,423.755 229.03,423.422 226.5,422C 207.333,402.833 188.167,383.667 169,364.5C 167.426,361.508 167.259,358.508 168.5,355.5C 169.5,354.167 170.5,352.833 171.5,351.5C 178.631,343.868 185.964,336.368 193.5,329C 197.944,326.932 202.277,327.099 206.5,329.5 Z"/></g>
<g><path style="opacity:1" fill="#fecbaa" d="M 207.5,331.5 C 222.049,340.904 238.049,345.904 255.5,346.5C 272.825,345.501 288.825,340.501 303.5,331.5C 287.854,347.812 271.854,363.812 255.5,379.5C 239.146,363.812 223.146,347.812 207.5,331.5 Z"/></g>
<g><path style="opacity:0.999" fill="#5299d3" d="M 339.5,351.5 C 392.188,359.348 426.688,388.682 443,439.5C 447.798,457.589 448.632,475.756 445.5,494C 422.257,495.48 398.924,495.98 375.5,495.5C 375.667,481.163 375.5,466.829 375,452.5C 371.911,447.695 367.744,446.528 362.5,449C 361.299,449.903 360.465,451.069 360,452.5C 359.5,466.829 359.333,481.163 359.5,495.5C 290.167,495.5 220.833,495.5 151.5,495.5C 151.667,481.163 151.5,466.829 151,452.5C 147.911,447.695 143.744,446.528 138.5,449C 137.299,449.903 136.465,451.069 136,452.5C 135.5,466.829 135.333,481.163 135.5,495.5C 118.5,495.5 101.5,495.5 84.5,495.5C 82.525,494.354 81.025,492.687 80,490.5C 75.777,437.116 95.9437,395.949 140.5,367C 149.296,361.766 158.629,357.933 168.5,355.5C 167.259,358.508 167.426,361.508 169,364.5C 188.167,383.667 207.333,402.833 226.5,422C 229.03,423.422 231.697,423.755 234.5,423C 241.65,416.684 248.65,410.184 255.5,403.5C 261.652,409.152 267.652,414.985 273.5,421C 277.5,424.333 281.5,424.333 285.5,421C 304,402.5 322.5,384 341,365.5C 344.544,360.425 344.044,355.758 339.5,351.5 Z"/></g>
<g><path style="opacity:1" fill="#3485c8" d="M 171.5,351.5 C 170.5,352.833 169.5,354.167 168.5,355.5C 158.629,357.933 149.296,361.766 140.5,367C 95.9437,395.949 75.777,437.116 80,490.5C 81.025,492.687 82.525,494.354 84.5,495.5C 78.0478,495.916 71.7145,495.416 65.5,494C 58.2677,440.466 76.9343,398.466 121.5,368C 136.924,358.803 153.59,353.303 171.5,351.5 Z"/></g>
<g><path style="opacity:1" fill="#3385c8" d="M 151.5,495.5 C 146.167,495.5 140.833,495.5 135.5,495.5C 135.333,481.163 135.5,466.829 136,452.5C 136.465,451.069 137.299,449.903 138.5,449C 143.744,446.528 147.911,447.695 151,452.5C 151.5,466.829 151.667,481.163 151.5,495.5 Z"/></g>
<g><path style="opacity:1" fill="#3385c8" d="M 375.5,495.5 C 370.167,495.5 364.833,495.5 359.5,495.5C 359.333,481.163 359.5,466.829 360,452.5C 360.465,451.069 361.299,449.903 362.5,449C 367.744,446.528 371.911,447.695 375,452.5C 375.5,466.829 375.667,481.163 375.5,495.5 Z"/></g>
</svg>
