<?xml version="1.0" encoding="UTF-8"?>
<!DOCTYPE svg PUBLIC "-//W3C//DTD SVG 1.1//EN" "http://www.w3.org/Graphics/SVG/1.1/DTD/svg11.dtd">
<svg xmlns="http://www.w3.org/2000/svg" version="1.1" width="512px" height="512px" style="shape-rendering:geometricPrecision; text-rendering:geometricPrecision; image-rendering:optimizeQuality; fill-rule:evenodd; clip-rule:evenodd" xmlns:xlink="http://www.w3.org/1999/xlink">
<g><path style="opacity:0.987" fill="#2195f3" d="M 511.5,137.5 C 511.5,141.5 511.5,145.5 511.5,149.5C 510.121,152.386 508.121,154.886 505.5,157C 461.5,189.667 417.5,222.333 373.5,255C 363.712,257.415 356.545,254.248 352,245.5C 351.5,227.503 351.333,209.503 351.5,191.5C 325.814,191.175 300.148,191.675 274.5,193C 228.533,199.221 193.033,221.721 168,260.5C 164,267.833 160,275.167 156,282.5C 149.146,288.186 141.646,289.019 133.5,285C 128.052,279.502 126.052,272.835 127.5,265C 131.953,197.932 163.286,147.932 221.5,115C 241.31,104.796 262.31,98.4632 284.5,96C 306.831,95.5 329.164,95.3334 351.5,95.5C 351.333,77.4969 351.5,59.4969 352,41.5C 356.545,32.7517 363.712,29.585 373.5,32C 417.5,64.6667 461.5,97.3333 505.5,130C 508.121,132.114 510.121,134.614 511.5,137.5 Z"/></g>
<g><path style="opacity:0.999" fill="#5f7d8a" d="M -0.5,455.5 C -0.5,332.833 -0.5,210.167 -0.5,87.5C 2.36314,78.7961 7.69647,71.9628 15.5,67C 18.0891,65.8035 20.7558,64.8035 23.5,64C 68.8321,63.5 114.165,63.3333 159.5,63.5C 159.5,84.8333 159.5,106.167 159.5,127.5C 127.5,127.5 95.5,127.5 63.5,127.5C 63.5,223.5 63.5,319.5 63.5,415.5C 159.5,415.5 255.5,415.5 351.5,415.5C 351.5,373.167 351.5,330.833 351.5,288.5C 372.833,288.5 394.167,288.5 415.5,288.5C 415.667,344.168 415.5,399.834 415,455.5C 411.833,468 404,475.833 391.5,479C 268.833,479.667 146.167,479.667 23.5,479C 17.7863,477.608 12.7863,474.941 8.5,471C 4.37379,466.4 1.37379,461.234 -0.5,455.5 Z"/></g>
</svg>
