<?xml version="1.0" encoding="UTF-8"?>
<!DOCTYPE svg PUBLIC "-//W3C//DTD SVG 1.1//EN" "http://www.w3.org/Graphics/SVG/1.1/DTD/svg11.dtd">
<svg xmlns="http://www.w3.org/2000/svg" version="1.1" width="512px" height="512px" style="shape-rendering:geometricPrecision; text-rendering:geometricPrecision; image-rendering:optimizeQuality; fill-rule:evenodd; clip-rule:evenodd" xmlns:xlink="http://www.w3.org/1999/xlink">
<g><path style="opacity:0.976" fill="#4294ff" d="M 249.5,31.5 C 344.233,32.2628 413.733,74.2628 458,157.5C 477.959,200.546 484.292,245.546 477,292.5C 459.681,378.478 410.014,436.811 328,467.5C 244.896,492.281 170.396,476.781 104.5,421C 43.8592,361.734 21.3592,290.234 37,206.5C 47.3865,161.534 69.2198,123.368 102.5,92C 93.7669,92.0992 86.6002,88.9326 81,82.5C 76.0353,68.1396 81.0353,59.8063 96,57.5C 113.913,59.5514 131.747,62.0514 149.5,65C 156.943,68.2164 160.277,73.8831 159.5,82C 157.954,97.1978 156.121,112.364 154,127.5C 151.686,141.072 143.852,146.239 130.5,143C 124.195,139.842 120.862,134.676 120.5,127.5C 122.85,119.953 121.683,118.62 117,123.5C 66.1875,181.109 52.1875,246.775 75,320.5C 105.267,395.748 160.767,438.248 241.5,448C 316.576,450.878 375.41,421.711 418,360.5C 452.748,303.012 457.748,243.012 433,180.5C 397.638,106.542 338.805,67.7084 256.5,64C 242.623,62.7703 237.123,55.2703 240,41.5C 242.022,36.98 245.189,33.6467 249.5,31.5 Z"/></g>
<g><path style="opacity:0.995" fill="#e5ebfe" d="M 382.5,187.5 C 351.86,206.829 320.193,224.662 287.5,241C 282.248,243.462 276.915,245.629 271.5,247.5C 271.667,232.496 271.5,217.496 271,202.5C 265.496,192.08 257.329,189.247 246.5,194C 243.567,196.264 241.4,199.098 240,202.5C 239.5,221.497 239.333,240.497 239.5,259.5C 239.586,260.496 239.252,261.329 238.5,262C 199.664,276.89 159.998,289.056 119.5,298.5C 118.702,298.957 118.369,299.624 118.5,300.5C 101.465,241.142 115.131,189.975 159.5,147C 203.404,111.18 252.404,102.18 306.5,120C 340.348,133.064 365.682,155.564 382.5,187.5 Z"/></g>
<g><path style="opacity:1" fill="#b7c6e2" d="M 382.5,187.5 C 397.019,213.923 402.519,242.257 399,272.5C 388.028,338.473 350.195,379.973 285.5,397C 219.356,407.332 167.856,384.832 131,329.5C 125.714,320.266 121.547,310.6 118.5,300.5C 118.369,299.624 118.702,298.957 119.5,298.5C 159.998,289.056 199.664,276.89 238.5,262C 239.252,261.329 239.586,260.496 239.5,259.5C 240.167,260.5 240.833,261.5 241.5,262.5C 253.911,276.414 266.911,289.914 280.5,303C 290.276,307.74 298.109,305.573 304,296.5C 306.238,290.985 305.905,285.651 303,280.5C 292.298,269.965 281.798,259.298 271.5,248.5C 271.5,248.167 271.5,247.833 271.5,247.5C 276.915,245.629 282.248,243.462 287.5,241C 320.193,224.662 351.86,206.829 382.5,187.5 Z"/></g>
<g><path style="opacity:1" fill="#4294fe" d="M 271.5,247.5 C 271.5,247.833 271.5,248.167 271.5,248.5C 262.306,252.594 252.973,256.428 243.5,260C 242.244,260.417 241.577,261.25 241.5,262.5C 240.833,261.5 240.167,260.5 239.5,259.5C 239.333,240.497 239.5,221.497 240,202.5C 241.4,199.098 243.567,196.264 246.5,194C 257.329,189.247 265.496,192.08 271,202.5C 271.5,217.496 271.667,232.496 271.5,247.5 Z"/></g>
<g><path style="opacity:1" fill="#2965ed" d="M 271.5,248.5 C 281.798,259.298 292.298,269.965 303,280.5C 305.905,285.651 306.238,290.985 304,296.5C 298.109,305.573 290.276,307.74 280.5,303C 266.911,289.914 253.911,276.414 241.5,262.5C 241.577,261.25 242.244,260.417 243.5,260C 252.973,256.428 262.306,252.594 271.5,248.5 Z"/></g>
</svg>
