<?xml version="1.0" encoding="UTF-8"?>
<!DOCTYPE svg PUBLIC "-//W3C//DTD SVG 1.1//EN" "http://www.w3.org/Graphics/SVG/1.1/DTD/svg11.dtd">
<svg xmlns="http://www.w3.org/2000/svg" version="1.1" width="512px" height="512px" style="shape-rendering:geometricPrecision; text-rendering:geometricPrecision; image-rendering:optimizeQuality; fill-rule:evenodd; clip-rule:evenodd" xmlns:xlink="http://www.w3.org/1999/xlink">
<g><path style="opacity:0.999" fill="#63b4f6" d="M 33.5,-0.5 C 38.1667,-0.5 42.8333,-0.5 47.5,-0.5C 95.2158,14.794 142.882,30.6274 190.5,47C 200.225,52.7272 207.059,60.8939 211,71.5C 212.159,196.958 212.993,322.291 213.5,447.5C 214.107,459.625 213.274,471.625 211,483.5C 205.023,498.05 194.523,507.383 179.5,511.5C 173.167,511.5 166.833,511.5 160.5,511.5C 114.571,496.135 68.5715,480.635 22.5,465C 10.859,458.201 3.19232,448.367 -0.5,435.5C -0.5,301.167 -0.5,166.833 -0.5,32.5C 4.9128,15.4208 16.2461,4.4208 33.5,-0.5 Z"/></g>
<g><path style="opacity:0.998" fill="#2196f3" d="M 47.5,-0.5 C 127.833,-0.5 208.167,-0.5 288.5,-0.5C 318.245,7.08321 335.745,26.0832 341,56.5C 341.5,87.4982 341.667,118.498 341.5,149.5C 324.163,149.333 306.83,149.5 289.5,150C 255.508,157.325 237.175,178.325 234.5,213C 235.904,237.827 247.238,256.494 268.5,269C 275.796,272.543 283.462,274.876 291.5,276C 308.163,276.5 324.83,276.667 341.5,276.5C 341.667,314.501 341.5,352.501 341,390.5C 336.661,418.839 320.828,437.339 293.5,446C 266.876,447.455 240.21,447.955 213.5,447.5C 212.993,322.291 212.159,196.958 211,71.5C 207.059,60.8939 200.225,52.7272 190.5,47C 142.882,30.6274 95.2158,14.794 47.5,-0.5 Z"/></g>
<g><path style="opacity:0.995" fill="#607c8b" d="M 511.5,206.5 C 511.5,210.833 511.5,215.167 511.5,219.5C 510.208,222.737 508.374,225.737 506,228.5C 477.5,257 449,285.5 420.5,314C 410.749,320.929 400.749,321.262 390.5,315C 385.707,310.578 383.207,305.078 383,298.5C 382.5,277.169 382.333,255.836 382.5,234.5C 352.498,234.667 322.498,234.5 292.5,234C 278.731,228.627 273.897,218.794 278,204.5C 280.482,198.172 284.982,194.006 291.5,192C 321.832,191.5 352.165,191.333 382.5,191.5C 382.073,167.799 382.573,144.132 384,120.5C 387.663,110.838 394.663,105.838 405,105.5C 409.885,105.846 414.385,107.346 418.5,110C 448,139.5 477.5,169 507,198.5C 508.795,201.099 510.295,203.766 511.5,206.5 Z"/></g>
</svg>
