<?xml version="1.0" encoding="UTF-8"?>
<!DOCTYPE svg PUBLIC "-//W3C//DTD SVG 1.1//EN" "http://www.w3.org/Graphics/SVG/1.1/DTD/svg11.dtd">
<svg xmlns="http://www.w3.org/2000/svg" version="1.1" width="512px" height="512px" style="shape-rendering:geometricPrecision; text-rendering:geometricPrecision; image-rendering:optimizeQuality; fill-rule:evenodd; clip-rule:evenodd" xmlns:xlink="http://www.w3.org/1999/xlink">
<g><path style="opacity:1" fill="#4d9af8" d="M 115.5,-0.5 C 135.167,-0.5 154.833,-0.5 174.5,-0.5C 116.5,58.1667 58.1667,116.5 -0.5,174.5C -0.5,154.833 -0.5,135.167 -0.5,115.5C 8.57616,59.2456 40.2428,22.0789 94.5,4C 101.621,2.41113 108.621,0.911125 115.5,-0.5 Z"/></g>
<g><path style="opacity:1" fill="#4796f2" d="M 174.5,-0.5 C 195.167,-0.5 215.833,-0.5 236.5,-0.5C 157.833,78.8333 78.8333,157.833 -0.5,236.5C -0.5,215.833 -0.5,195.167 -0.5,174.5C 58.1667,116.5 116.5,58.1667 174.5,-0.5 Z"/></g>
<g><path style="opacity:1" fill="#4092ed" d="M 236.5,-0.5 C 257.167,-0.5 277.833,-0.5 298.5,-0.5C 199.167,99.5 99.5,199.167 -0.5,298.5C -0.5,277.833 -0.5,257.167 -0.5,236.5C 78.8333,157.833 157.833,78.8333 236.5,-0.5 Z"/></g>
<g><path style="opacity:1" fill="#3c90e9" d="M 298.5,-0.5 C 310.5,-0.5 322.5,-0.5 334.5,-0.5C 223.167,111.5 111.5,223.167 -0.5,334.5C -0.5,322.5 -0.5,310.5 -0.5,298.5C 99.5,199.167 199.167,99.5 298.5,-0.5 Z"/></g>
<g><path style="opacity:1" fill="#388de4" d="M 334.5,-0.5 C 354.833,-0.5 375.167,-0.5 395.5,-0.5C 399.758,0.402166 404.091,1.40217 408.5,2.5C 366.784,45.2162 324.451,87.2162 281.5,128.5C 266.872,119.233 251.538,118.067 235.5,125C 193.375,159.457 151.541,194.29 110,229.5C 102.432,242.179 104.599,252.846 116.5,261.5C 121.833,267.167 127.167,272.833 132.5,278.5C 89.1395,322.194 45.8062,365.86 2.5,409.5C 1.49129,404.715 0.491292,400.048 -0.5,395.5C -0.5,375.167 -0.5,354.833 -0.5,334.5C 111.5,223.167 223.167,111.5 334.5,-0.5 Z"/></g>
<g><path style="opacity:0.999" fill="#3089dd" d="M 408.5,2.5 C 425.376,5.89324 440.71,12.5599 454.5,22.5C 409.413,68.5863 364.08,114.253 318.5,159.5C 305.849,149.513 293.516,139.18 281.5,128.5C 324.451,87.2162 366.784,45.2162 408.5,2.5 Z"/></g>
<g><path style="opacity:0.998" fill="#2a85d7" d="M 454.5,22.5 C 467.855,31.1879 478.855,42.1879 487.5,55.5C 444.251,100.25 400.418,144.583 356,188.5C 355.536,189.094 355.369,189.761 355.5,190.5C 342.849,180.513 330.516,170.18 318.5,159.5C 364.08,114.253 409.413,68.5863 454.5,22.5 Z"/></g>
<g><path style="opacity:0.998" fill="#2381d1" d="M 487.5,55.5 C 498.147,69.4046 505.147,85.0713 508.5,102.5C 468.833,141.5 429.5,180.833 390.5,220.5C 378.607,210.727 366.94,200.727 355.5,190.5C 355.369,189.761 355.536,189.094 356,188.5C 400.418,144.583 444.251,100.25 487.5,55.5 Z"/></g>
<g><path style="opacity:0.999" fill="#1d7ecb" d="M 508.5,102.5 C 509.598,106.909 510.598,111.242 511.5,115.5C 511.5,130.167 511.5,144.833 511.5,159.5C 481.167,189.167 451.167,219.167 421.5,249.5C 415.778,243.773 409.778,238.44 403.5,233.5C 400.167,228.167 395.833,223.833 390.5,220.5C 429.5,180.833 468.833,141.5 508.5,102.5 Z"/></g>
<g><path style="opacity:1" fill="#fefefe" d="M 281.5,128.5 C 293.516,139.18 305.849,149.513 318.5,159.5C 330.516,170.18 342.849,180.513 355.5,190.5C 366.94,200.727 378.607,210.727 390.5,220.5C 395.833,223.833 400.167,228.167 403.5,233.5C 408.202,248.262 403.202,258.095 388.5,263C 383.845,263.499 379.179,263.666 374.5,263.5C 374.667,300.835 374.5,338.168 374,375.5C 371.35,384.323 365.517,389.323 356.5,390.5C 336.167,390.5 315.833,390.5 295.5,390.5C 295.831,365.661 295.498,340.994 294.5,316.5C 290.136,294.971 276.969,283.637 255,282.5C 233.57,284.097 220.736,295.43 216.5,316.5C 215.502,340.994 215.169,365.661 215.5,390.5C 194.5,390.5 173.5,390.5 152.5,390.5C 151.167,390.167 149.833,389.833 148.5,389.5C 142.706,386.531 138.873,381.864 137,375.5C 136.5,364.505 136.333,353.505 136.5,342.5C 136.5,322.167 136.5,301.833 136.5,281.5C 136.5,275.5 136.5,269.5 136.5,263.5C 129.683,263.936 123.016,263.269 116.5,261.5C 104.599,252.846 102.432,242.179 110,229.5C 151.541,194.29 193.375,159.457 235.5,125C 251.538,118.067 266.872,119.233 281.5,128.5 Z"/></g>
<g><path style="opacity:1" fill="#167ac5" d="M 511.5,159.5 C 511.5,187.167 511.5,214.833 511.5,242.5C 495.167,258.5 478.833,274.5 462.5,290.5C 448.5,277.167 434.833,263.5 421.5,249.5C 451.167,219.167 481.167,189.167 511.5,159.5 Z"/></g>
<g><path style="opacity:1" fill="#235d97" d="M 116.5,261.5 C 123.016,263.269 129.683,263.936 136.5,263.5C 136.5,269.5 136.5,275.5 136.5,281.5C 135.167,280.5 133.833,279.5 132.5,278.5C 127.167,272.833 121.833,267.167 116.5,261.5 Z"/></g>
<g><path style="opacity:1" fill="#0f75be" d="M 511.5,242.5 C 511.5,274.833 511.5,307.167 511.5,339.5C 499.167,327.5 486.833,315.5 474.5,303.5C 470.5,299.167 466.5,294.833 462.5,290.5C 478.833,274.5 495.167,258.5 511.5,242.5 Z"/></g>
<g><path style="opacity:1" fill="#1169aa" d="M 403.5,233.5 C 409.778,238.44 415.778,243.773 421.5,249.5C 434.833,263.5 448.5,277.167 462.5,290.5C 466.5,294.833 470.5,299.167 474.5,303.5C 405.5,372.167 336.5,440.833 267.5,509.5C 253.167,495.5 238.833,481.5 224.5,467.5C 224.167,466.833 223.833,466.167 223.5,465.5C 249.117,441.551 274.117,416.884 298.5,391.5C 318.007,391.83 337.341,391.497 356.5,390.5C 365.517,389.323 371.35,384.323 374,375.5C 374.5,338.168 374.667,300.835 374.5,263.5C 379.179,263.666 383.845,263.499 388.5,263C 403.202,258.095 408.202,248.262 403.5,233.5 Z"/></g>
<g><path style="opacity:1" fill="#1a65a4" d="M 294.5,316.5 C 294.5,341.5 294.5,366.5 294.5,391.5C 295.833,391.5 297.167,391.5 298.5,391.5C 274.117,416.884 249.117,441.551 223.5,465.5C 210.167,452.5 196.833,439.5 183.5,426.5C 174.833,417.167 165.833,408.167 156.5,399.5C 153.704,396.203 150.704,393.036 147.5,390C 147.728,389.601 148.062,389.435 148.5,389.5C 149.833,389.833 151.167,390.167 152.5,390.5C 173.66,391.497 194.993,391.831 216.5,391.5C 216.5,366.5 216.5,341.5 216.5,316.5C 220.736,295.43 233.57,284.097 255,282.5C 276.969,283.637 290.136,294.971 294.5,316.5 Z"/></g>
<g><path style="opacity:0.999" fill="#3089dd" d="M 132.5,278.5 C 133.833,279.5 135.167,280.5 136.5,281.5C 136.5,301.833 136.5,322.167 136.5,342.5C 99.1099,378.723 62.1099,415.556 25.5,453C 24.4734,453.513 23.4734,454.013 22.5,454.5C 12.7633,440.991 6.09666,425.991 2.5,409.5C 45.8062,365.86 89.1395,322.194 132.5,278.5 Z"/></g>
<g><path style="opacity:1" fill="#096bad" d="M 474.5,303.5 C 486.833,315.5 499.167,327.5 511.5,339.5C 511.5,358.167 511.5,376.833 511.5,395.5C 502.392,450.182 471.725,487.015 419.5,506C 411.442,508.174 403.442,510.008 395.5,511.5C 353.167,511.5 310.833,511.5 268.5,511.5C 268.167,510.833 267.833,510.167 267.5,509.5C 336.5,440.833 405.5,372.167 474.5,303.5 Z"/></g>
<g><path style="opacity:0.998" fill="#2985d6" d="M 136.5,342.5 C 136.333,353.505 136.5,364.505 137,375.5C 138.873,381.864 142.706,386.531 148.5,389.5C 148.062,389.435 147.728,389.601 147.5,390C 150.704,393.036 153.704,396.203 156.5,399.5C 156.631,400.239 156.464,400.906 156,401.5C 125.298,432.035 94.7985,462.701 64.5,493.5C 47.3297,483.999 33.3297,470.999 22.5,454.5C 23.4734,454.013 24.4734,453.513 25.5,453C 62.1099,415.556 99.1099,378.723 136.5,342.5 Z"/></g>
<g><path style="opacity:1" fill="#97b8d4" d="M 216.5,316.5 C 216.5,341.5 216.5,366.5 216.5,391.5C 194.993,391.831 173.66,391.497 152.5,390.5C 173.5,390.5 194.5,390.5 215.5,390.5C 215.169,365.661 215.502,340.994 216.5,316.5 Z"/></g>
<g><path style="opacity:1" fill="#94bad7" d="M 294.5,316.5 C 295.498,340.994 295.831,365.661 295.5,390.5C 315.833,390.5 336.167,390.5 356.5,390.5C 337.341,391.497 318.007,391.83 298.5,391.5C 297.167,391.5 295.833,391.5 294.5,391.5C 294.5,366.5 294.5,341.5 294.5,316.5 Z"/></g>
<g><path style="opacity:0.997" fill="#2381d0" d="M 156.5,399.5 C 165.833,408.167 174.833,417.167 183.5,426.5C 156.5,453.833 129.5,481.167 102.5,508.5C 88.813,505.832 76.1463,500.832 64.5,493.5C 94.7985,462.701 125.298,432.035 156,401.5C 156.464,400.906 156.631,400.239 156.5,399.5 Z"/></g>
<g><path style="opacity:0.999" fill="#1c7dcb" d="M 183.5,426.5 C 196.833,439.5 210.167,452.5 223.5,465.5C 223.833,466.167 224.167,466.833 224.5,467.5C 210.167,482.167 195.833,496.833 181.5,511.5C 159.5,511.5 137.5,511.5 115.5,511.5C 111.242,510.598 106.909,509.598 102.5,508.5C 129.5,481.167 156.5,453.833 183.5,426.5 Z"/></g>
<g><path style="opacity:1" fill="#1579c4" d="M 224.5,467.5 C 238.833,481.5 253.167,495.5 267.5,509.5C 267.833,510.167 268.167,510.833 268.5,511.5C 239.5,511.5 210.5,511.5 181.5,511.5C 195.833,496.833 210.167,482.167 224.5,467.5 Z"/></g>
</svg>
