<?xml version="1.0" encoding="UTF-8"?>
<!DOCTYPE svg PUBLIC "-//W3C//DTD SVG 1.1//EN" "http://www.w3.org/Graphics/SVG/1.1/DTD/svg11.dtd">
<svg xmlns="http://www.w3.org/2000/svg" version="1.1" width="512px" height="512px" style="shape-rendering:geometricPrecision; text-rendering:geometricPrecision; image-rendering:optimizeQuality; fill-rule:evenodd; clip-rule:evenodd" xmlns:xlink="http://www.w3.org/1999/xlink">
<g><path style="opacity:0.994" fill="#e5924d" d="M 209.5,8.5 C 220.5,8.5 231.5,8.5 242.5,8.5C 238.353,9.32474 234.019,9.82474 229.5,10C 319.918,62.293 410.418,114.46 501,166.5C 501.278,165.584 501.778,164.918 502.5,164.5C 502.5,169.5 502.5,174.5 502.5,179.5C 501.778,179.918 501.278,180.584 501,181.5C 401.833,124.333 302.667,67.1667 203.5,10C 205.708,9.80912 207.708,9.30912 209.5,8.5 Z"/></g>
<g><path style="opacity:0.998" fill="#d57967" d="M 106.5,9.5 C 147.798,33.485 189.131,57.485 230.5,81.5C 226.116,85.5592 223.449,90.5592 222.5,96.5C 174.624,69.0846 126.958,42.0846 79.5,15.5C 88.0086,11.7924 97.0086,9.79236 106.5,9.5 Z"/></g>
<g><path style="opacity:1" fill="#d97f61" d="M 148.5,8.5 C 146.708,9.30912 144.708,9.80912 142.5,10C 180.389,31.103 217.722,52.9364 254.5,75.5C 245.411,73.1971 237.411,75.1971 230.5,81.5C 189.131,57.485 147.798,33.485 106.5,9.5C 120.451,8.53459 134.451,8.20126 148.5,8.5 Z"/></g>
<g><path style="opacity:0.999" fill="#dd865a" d="M 148.5,8.5 C 149.5,8.5 150.5,8.5 151.5,8.5C 156.985,9.32716 162.652,9.82716 168.5,10C 279.228,74.3624 390.228,138.196 501.5,201.5C 501.5,202.167 501.833,202.5 502.5,202.5C 502.5,207.5 502.5,212.5 502.5,217.5C 423.636,171.902 344.636,126.569 265.5,81.5C 262.282,78.7235 258.615,76.7235 254.5,75.5C 217.722,52.9364 180.389,31.103 142.5,10C 144.708,9.80912 146.708,9.30912 148.5,8.5 Z"/></g>
<g><path style="opacity:1" fill="#df8956" d="M 151.5,8.5 C 162.833,8.5 174.167,8.5 185.5,8.5C 183.369,9.31382 181.036,9.81382 178.5,10C 285.337,71.9194 392.337,133.586 499.5,195C 501.229,196.789 501.896,198.956 501.5,201.5C 390.228,138.196 279.228,74.3624 168.5,10C 162.652,9.82716 156.985,9.32716 151.5,8.5 Z"/></g>
<g><path style="opacity:0.996" fill="#e18c52" d="M 185.5,8.5 C 193.5,8.5 201.5,8.5 209.5,8.5C 207.708,9.30912 205.708,9.80912 203.5,10C 302.667,67.1667 401.833,124.333 501,181.5C 501.278,180.584 501.778,179.918 502.5,179.5C 502.5,187.167 502.5,194.833 502.5,202.5C 501.833,202.5 501.5,202.167 501.5,201.5C 501.896,198.956 501.229,196.789 499.5,195C 392.337,133.586 285.337,71.9194 178.5,10C 181.036,9.81382 183.369,9.31382 185.5,8.5 Z"/></g>
<g><path style="opacity:0.998" fill="#e89747" d="M 242.5,8.5 C 245.833,8.5 249.167,8.5 252.5,8.5C 254.292,9.30912 256.292,9.80912 258.5,10C 339.415,56.7071 420.248,103.54 501,150.5C 501.278,149.584 501.778,148.918 502.5,148.5C 502.5,153.833 502.5,159.167 502.5,164.5C 501.778,164.918 501.278,165.584 501,166.5C 410.418,114.46 319.918,62.293 229.5,10C 234.019,9.82474 238.353,9.32474 242.5,8.5 Z"/></g>
<g><path style="opacity:1" fill="#ec9d41" d="M 252.5,8.5 C 261.167,8.5 269.833,8.5 278.5,8.5C 280.969,9.3171 283.635,9.8171 286.5,10C 357.67,51.4193 429.003,92.586 500.5,133.5C 501.17,135.291 501.837,136.958 502.5,138.5C 502.5,141.833 502.5,145.167 502.5,148.5C 501.778,148.918 501.278,149.584 501,150.5C 420.248,103.54 339.415,56.7071 258.5,10C 256.292,9.80912 254.292,9.30912 252.5,8.5 Z"/></g>
<g><path style="opacity:1" fill="#eea13d" d="M 278.5,8.5 C 286.833,8.5 295.167,8.5 303.5,8.5C 302.737,9.26791 301.737,9.76791 300.5,10C 367.697,49.0977 435.031,87.9311 502.5,126.5C 502.5,130.5 502.5,134.5 502.5,138.5C 501.837,136.958 501.17,135.291 500.5,133.5C 429.003,92.586 357.67,51.4193 286.5,10C 283.635,9.8171 280.969,9.3171 278.5,8.5 Z"/></g>
<g><path style="opacity:0.995" fill="#f1a438" d="M 303.5,8.5 C 317.167,8.5 330.833,8.5 344.5,8.5C 340.018,9.3255 335.351,9.8255 330.5,10C 387.527,42.8451 444.527,75.6784 501.5,108.5C 502.49,114.31 502.823,120.31 502.5,126.5C 435.031,87.9311 367.697,49.0977 300.5,10C 301.737,9.76791 302.737,9.26791 303.5,8.5 Z"/></g>
<g><path style="opacity:0.999" fill="#f4aa32" d="M 344.5,8.5 C 356.5,8.5 368.5,8.5 380.5,8.5C 380.5,8.83333 380.5,9.16667 380.5,9.5C 374.158,9.33379 367.825,9.50046 361.5,10C 406.895,36.696 452.562,62.8626 498.5,88.5C 500.577,94.9676 501.577,101.634 501.5,108.5C 444.527,75.6784 387.527,42.8451 330.5,10C 335.351,9.8255 340.018,9.3255 344.5,8.5 Z"/></g>
<g><path style="opacity:0.998" fill="#f8b02c" d="M 380.5,9.5 C 417.669,31.9215 455.336,53.5881 493.5,74.5C 495.935,78.7986 497.602,83.4653 498.5,88.5C 452.562,62.8626 406.895,36.696 361.5,10C 367.825,9.50046 374.158,9.33379 380.5,9.5 Z"/></g>
<g><path style="opacity:0.997" fill="#fbb527" d="M 380.5,8.5 C 426.086,5.71175 461.586,23.0451 487,60.5C 489.452,65.0683 491.618,69.735 493.5,74.5C 455.336,53.5881 417.669,31.9215 380.5,9.5C 380.5,9.16667 380.5,8.83333 380.5,8.5 Z"/></g>
<g><path style="opacity:0.998" fill="#d2746d" d="M 79.5,15.5 C 126.958,42.0846 174.624,69.0846 222.5,96.5C 222.767,102.838 223.1,109.171 223.5,115.5C 170.3,84.7373 117.3,53.7373 64.5,22.5C 69.0697,19.3836 74.0697,17.0502 79.5,15.5 Z"/></g>
<g><path style="opacity:0.999" fill="#cf6f72" d="M 64.5,22.5 C 117.3,53.7373 170.3,84.7373 223.5,115.5C 223.998,120.152 224.331,124.819 224.5,129.5C 167.664,95.9144 110.664,62.581 53.5,29.5C 56.6505,26.4208 60.3171,24.0875 64.5,22.5 Z"/></g>
<g><path style="opacity:0.998" fill="#cd6c76" d="M 53.5,29.5 C 110.664,62.581 167.664,95.9144 224.5,129.5C 225.08,133.81 225.414,138.143 225.5,142.5C 224.839,141.282 224.172,139.949 223.5,138.5C 164.104,104.14 104.77,69.8065 45.5,35.5C 47.8785,33.1223 50.5451,31.1223 53.5,29.5 Z"/></g>
<g><path style="opacity:0.999" fill="#cb687a" d="M 45.5,35.5 C 104.77,69.8065 164.104,104.14 223.5,138.5C 224.172,139.949 224.839,141.282 225.5,142.5C 225.916,147.493 226.249,152.493 226.5,157.5C 225.839,156.282 225.172,154.949 224.5,153.5C 162.833,118 101.167,82.5 39.5,47C 37.7593,45.917 37.0926,44.7503 37.5,43.5C 39.8333,40.5 42.5,37.8333 45.5,35.5 Z"/></g>
<g><path style="opacity:0.998" fill="#c9657e" d="M 37.5,43.5 C 37.0926,44.7503 37.7593,45.917 39.5,47C 101.167,82.5 162.833,118 224.5,153.5C 225.172,154.949 225.839,156.282 226.5,157.5C 226.5,159.5 226.5,161.5 226.5,163.5C 161.001,126.588 96.0011,88.9209 31.5,50.5C 32.7997,47.5677 34.7997,45.2344 37.5,43.5 Z"/></g>
<g><path style="opacity:0.999" fill="#c46583" d="M 31.5,50.5 C 96.0011,88.9209 161.001,126.588 226.5,163.5C 227.275,168.797 227.608,174.13 227.5,179.5C 159.799,139.983 91.7987,100.983 23.5,62.5C 25.6735,58.1477 28.3401,54.1477 31.5,50.5 Z"/></g>
<g><path style="opacity:1" fill="#bd6889" d="M 23.5,62.5 C 91.7987,100.983 159.799,139.983 227.5,179.5C 227.5,180.5 227.5,181.5 227.5,182.5C 227.665,185.85 227.498,189.183 227,192.5C 157.634,151.975 88.1344,111.642 18.5,71.5C 19.9287,68.3037 21.5954,65.3037 23.5,62.5 Z"/></g>
<g><path style="opacity:1" fill="#fefefe" d="M 254.5,75.5 C 258.615,76.7235 262.282,78.7235 265.5,81.5C 268.228,84.899 270.561,88.5657 272.5,92.5C 273.272,96.4517 273.605,100.452 273.5,104.5C 272.245,111.3 271.578,118.3 271.5,125.5C 270.646,131.121 270.313,136.788 270.5,142.5C 270.533,146.869 270.2,151.202 269.5,155.5C 269.002,160.152 268.669,164.819 268.5,169.5C 268.084,174.493 267.751,179.493 267.5,184.5C 265.611,194.872 269.278,202.372 278.5,207C 291.496,207.5 304.496,207.667 317.5,207.5C 332.541,209.175 344.207,216.175 352.5,228.5C 353.833,232.167 355.167,235.833 356.5,239.5C 357.299,242.43 357.632,245.43 357.5,248.5C 357.5,252.833 357.5,257.167 357.5,261.5C 357.5,263.167 357.5,264.833 357.5,266.5C 284.5,266.5 211.5,266.5 138.5,266.5C 138.5,259.167 138.5,251.833 138.5,244.5C 138.325,242.379 138.659,240.379 139.5,238.5C 140.282,234.937 141.616,231.603 143.5,228.5C 145.756,224.903 148.423,221.569 151.5,218.5C 154.871,216.154 158.204,213.821 161.5,211.5C 163.579,211.029 165.579,210.363 167.5,209.5C 176.376,207.695 185.376,207.029 194.5,207.5C 198.833,207.5 203.167,207.5 207.5,207.5C 214.258,208.249 219.925,206.249 224.5,201.5C 228.311,195.533 229.311,189.199 227.5,182.5C 227.5,181.5 227.5,180.5 227.5,179.5C 227.608,174.13 227.275,168.797 226.5,163.5C 226.5,161.5 226.5,159.5 226.5,157.5C 226.249,152.493 225.916,147.493 225.5,142.5C 225.414,138.143 225.08,133.81 224.5,129.5C 224.331,124.819 223.998,120.152 223.5,115.5C 223.1,109.171 222.767,102.838 222.5,96.5C 223.449,90.5592 226.116,85.5592 230.5,81.5C 237.411,75.1971 245.411,73.1971 254.5,75.5 Z"/></g>
<g><path style="opacity:1" fill="#b76c8f" d="M 18.5,71.5 C 88.1344,111.642 157.634,151.975 227,192.5C 227.498,189.183 227.665,185.85 227.5,182.5C 229.311,189.199 228.311,195.533 224.5,201.5C 155.405,162.255 86.4054,122.755 17.5,83C 16.1772,82.1841 15.5106,81.0174 15.5,79.5C 16.1084,76.6733 17.1084,74.0067 18.5,71.5 Z"/></g>
<g><path style="opacity:0.992" fill="#db825e" d="M 265.5,81.5 C 344.636,126.569 423.636,171.902 502.5,217.5C 502.5,223.167 502.5,228.833 502.5,234.5C 501.679,231.359 501.179,228.025 501,224.5C 425.051,180.109 348.884,136.109 272.5,92.5C 270.561,88.5657 268.228,84.899 265.5,81.5 Z"/></g>
<g><path style="opacity:0.999" fill="#b17096" d="M 15.5,79.5 C 15.5106,81.0174 16.1772,82.1841 17.5,83C 86.4054,122.755 155.405,162.255 224.5,201.5C 219.925,206.249 214.258,208.249 207.5,207.5C 143.06,169.774 78.3932,132.274 13.5,95C 12.9341,94.0053 12.2674,93.172 11.5,92.5C 12.3876,87.9281 13.7209,83.5948 15.5,79.5 Z"/></g>
<g><path style="opacity:0.998" fill="#ac729a" d="M 11.5,92.5 C 12.2674,93.172 12.9341,94.0053 13.5,95C 78.3932,132.274 143.06,169.774 207.5,207.5C 203.167,207.5 198.833,207.5 194.5,207.5C 133.642,171.481 72.4757,135.815 11,100.5C 10.6174,101.056 10.1174,101.389 9.5,101.5C 10.062,98.454 10.7287,95.454 11.5,92.5 Z"/></g>
<g><path style="opacity:1" fill="#d97e62" d="M 272.5,92.5 C 348.884,136.109 425.051,180.109 501,224.5C 501.179,228.025 501.679,231.359 502.5,234.5C 502.5,236.833 502.5,239.167 502.5,241.5C 501.766,240.122 501.099,238.622 500.5,237C 425.167,193.667 349.833,150.333 274.5,107C 273.748,106.329 273.414,105.496 273.5,104.5C 273.605,100.452 273.272,96.4517 272.5,92.5 Z"/></g>
<g><path style="opacity:0.995" fill="#d57967" d="M 273.5,104.5 C 273.414,105.496 273.748,106.329 274.5,107C 349.833,150.333 425.167,193.667 500.5,237C 501.099,238.622 501.766,240.122 502.5,241.5C 502.5,250.5 502.5,259.5 502.5,268.5C 501.834,264.979 501.167,261.313 500.5,257.5C 424.15,213.472 347.816,169.472 271.5,125.5C 271.578,118.3 272.245,111.3 273.5,104.5 Z"/></g>
<g><path style="opacity:0.994" fill="#a576a1" d="M 194.5,207.5 C 185.376,207.029 176.376,207.695 167.5,209.5C 166.358,207.567 164.692,206.067 162.5,205C 111.67,176.086 61.0034,146.919 10.5,117.5C 9.82434,118.602 9.15767,119.602 8.5,120.5C 8.55715,114.149 8.89049,107.815 9.5,101.5C 10.1174,101.389 10.6174,101.056 11,100.5C 72.4757,135.815 133.642,171.481 194.5,207.5 Z"/></g>
<g><path style="opacity:1" fill="#a079a6" d="M 167.5,209.5 C 165.579,210.363 163.579,211.029 161.5,211.5C 110.777,183.635 60.4436,154.968 10.5,125.5C 9.81654,125.863 9.14987,126.196 8.5,126.5C 8.5,124.5 8.5,122.5 8.5,120.5C 9.15767,119.602 9.82434,118.602 10.5,117.5C 61.0034,146.919 111.67,176.086 162.5,205C 164.692,206.067 166.358,207.567 167.5,209.5 Z"/></g>
<g><path style="opacity:1" fill="#d2746d" d="M 271.5,125.5 C 347.816,169.472 424.15,213.472 500.5,257.5C 501.167,261.313 501.834,264.979 502.5,268.5C 502.5,268.833 502.5,269.167 502.5,269.5C 501.691,271.292 501.191,273.292 501,275.5C 424.384,230.776 347.551,186.443 270.5,142.5C 270.313,136.788 270.646,131.121 271.5,125.5 Z"/></g>
<g><path style="opacity:0.993" fill="#9b7dab" d="M 161.5,211.5 C 158.204,213.821 154.871,216.154 151.5,218.5C 150.448,218.649 149.448,218.483 148.5,218C 101.942,190.89 55.275,164.057 8.5,137.5C 8.5,133.833 8.5,130.167 8.5,126.5C 9.14987,126.196 9.81654,125.863 10.5,125.5C 60.4436,154.968 110.777,183.635 161.5,211.5 Z"/></g>
<g><path style="opacity:0.993" fill="#9480b2" d="M 8.5,137.5 C 55.275,164.057 101.942,190.89 148.5,218C 149.448,218.483 150.448,218.649 151.5,218.5C 148.423,221.569 145.756,224.903 143.5,228.5C 99.563,204.197 55.8963,179.363 12.5,154C 10.4028,152.23 9.06944,150.063 8.5,147.5C 8.5,144.167 8.5,140.833 8.5,137.5 Z"/></g>
<g><path style="opacity:1" fill="#cf6f72" d="M 270.5,142.5 C 347.551,186.443 424.384,230.776 501,275.5C 501.191,273.292 501.691,271.292 502.5,269.5C 502.5,274.833 502.5,280.167 502.5,285.5C 501.596,286.209 501.263,287.209 501.5,288.5C 424.465,243.649 347.132,199.316 269.5,155.5C 270.2,151.202 270.533,146.869 270.5,142.5 Z"/></g>
<g><path style="opacity:0.993" fill="#8e84b8" d="M 8.5,147.5 C 9.06944,150.063 10.4028,152.23 12.5,154C 55.8963,179.363 99.563,204.197 143.5,228.5C 141.616,231.603 140.282,234.937 139.5,238.5C 137.692,238.509 136.025,238.009 134.5,237C 92.6084,212.557 50.6084,188.39 8.5,164.5C 8.5,158.833 8.5,153.167 8.5,147.5 Z"/></g>
<g><path style="opacity:1" fill="#cd6b76" d="M 269.5,155.5 C 347.132,199.316 424.465,243.649 501.5,288.5C 501.82,291.898 501.487,295.232 500.5,298.5C 423.833,254.167 347.167,209.833 270.5,165.5C 269.828,166.949 269.161,168.282 268.5,169.5C 268.669,164.819 269.002,160.152 269.5,155.5 Z"/></g>
<g><path style="opacity:0.993" fill="#cb687a" d="M 501.5,288.5 C 501.263,287.209 501.596,286.209 502.5,285.5C 502.5,294.5 502.5,303.5 502.5,312.5C 501.883,312.611 501.383,312.944 501,313.5C 451.619,284.134 402.119,255.801 352.5,228.5C 344.207,216.175 332.541,209.175 317.5,207.5C 301.563,198.193 285.563,188.86 269.5,179.5C 268.83,181.291 268.163,182.958 267.5,184.5C 267.751,179.493 268.084,174.493 268.5,169.5C 269.161,168.282 269.828,166.949 270.5,165.5C 347.167,209.833 423.833,254.167 500.5,298.5C 501.487,295.232 501.82,291.898 501.5,288.5 Z"/></g>
<g><path style="opacity:0.997" fill="#8887be" d="M 8.5,164.5 C 50.6084,188.39 92.6084,212.557 134.5,237C 136.025,238.009 137.692,238.509 139.5,238.5C 138.659,240.379 138.325,242.379 138.5,244.5C 137.698,245.952 137.198,247.618 137,249.5C 94.7516,225.293 52.585,200.96 10.5,176.5C 9.82811,175.051 9.16145,173.718 8.5,172.5C 8.5,169.833 8.5,167.167 8.5,164.5 Z"/></g>
<g><path style="opacity:1" fill="#c8657f" d="M 317.5,207.5 C 304.496,207.667 291.496,207.5 278.5,207C 269.278,202.372 265.611,194.872 267.5,184.5C 268.163,182.958 268.83,181.291 269.5,179.5C 285.563,188.86 301.563,198.193 317.5,207.5 Z"/></g>
<g><path style="opacity:0.992" fill="#818cc5" d="M 8.5,172.5 C 9.16145,173.718 9.82811,175.051 10.5,176.5C 52.585,200.96 94.7516,225.293 137,249.5C 137.198,247.618 137.698,245.952 138.5,244.5C 138.5,251.833 138.5,259.167 138.5,266.5C 145.982,267.492 153.648,267.825 161.5,267.5C 168.002,271.25 174.335,275.25 180.5,279.5C 172.5,279.5 164.5,279.5 156.5,279.5C 107.811,251.067 58.9781,222.734 10,194.5C 9.72158,195.416 9.22158,196.082 8.5,196.5C 8.5,188.5 8.5,180.5 8.5,172.5 Z"/></g>
<g><path style="opacity:0.993" fill="#7990cc" d="M 156.5,279.5 C 149.978,279.177 143.645,279.51 137.5,280.5C 94.9456,255.971 52.4456,231.305 10,206.5C 9.72158,207.416 9.22158,208.082 8.5,208.5C 8.5,204.5 8.5,200.5 8.5,196.5C 9.22158,196.082 9.72158,195.416 10,194.5C 58.9781,222.734 107.811,251.067 156.5,279.5 Z"/></g>
<g><path style="opacity:1" fill="#6f96d6" d="M 137.5,280.5 C 137.5,288.5 137.5,296.5 137.5,304.5C 95.1941,280.012 52.8608,255.512 10.5,231C 9.9152,229.698 9.24853,228.531 8.5,227.5C 8.5,221.167 8.5,214.833 8.5,208.5C 9.22158,208.082 9.72158,207.416 10,206.5C 52.4456,231.305 94.9456,255.971 137.5,280.5 Z"/></g>
<g><path style="opacity:0.995" fill="#679bde" d="M 8.5,227.5 C 9.24853,228.531 9.9152,229.698 10.5,231C 52.8608,255.512 95.1941,280.012 137.5,304.5C 137.5,308.833 137.5,313.167 137.5,317.5C 95.3572,292.926 53.0239,268.592 10.5,244.5C 9.81815,245.243 9.15149,245.909 8.5,246.5C 8.5,240.167 8.5,233.833 8.5,227.5 Z"/></g>
<g><path style="opacity:1" fill="#c9647e" d="M 502.5,312.5 C 502.5,315.833 502.5,319.167 502.5,322.5C 453.833,294.833 405.167,267.167 356.5,239.5C 355.167,235.833 353.833,232.167 352.5,228.5C 402.119,255.801 451.619,284.134 501,313.5C 501.383,312.944 501.883,312.611 502.5,312.5 Z"/></g>
<g><path style="opacity:1" fill="#c66381" d="M 356.5,239.5 C 405.167,267.167 453.833,294.833 502.5,322.5C 502.5,325.833 502.5,329.167 502.5,332.5C 454.167,304.5 405.833,276.5 357.5,248.5C 357.632,245.43 357.299,242.43 356.5,239.5 Z"/></g>
<g><path style="opacity:1" fill="#659fdd" d="M 137.5,317.5 C 137.5,321.167 137.5,324.833 137.5,328.5C 95.6462,304.161 53.6462,279.995 11.5,256C 10.0331,253.622 9.03311,251.122 8.5,248.5C 8.5,247.833 8.5,247.167 8.5,246.5C 9.15149,245.909 9.81815,245.243 10.5,244.5C 53.0239,268.592 95.3572,292.926 137.5,317.5 Z"/></g>
<g><path style="opacity:0.995" fill="#c06786" d="M 357.5,248.5 C 405.833,276.5 454.167,304.5 502.5,332.5C 502.5,335.833 502.5,339.167 502.5,342.5C 501.778,342.918 501.278,343.584 501,344.5C 453.279,316.606 405.445,288.939 357.5,261.5C 357.5,257.167 357.5,252.833 357.5,248.5 Z"/></g>
<g><path style="opacity:0.99" fill="#68a3d6" d="M 8.5,248.5 C 9.03311,251.122 10.0331,253.622 11.5,256C 53.6462,279.995 95.6462,304.161 137.5,328.5C 137.5,333.167 137.5,337.833 137.5,342.5C 94.9456,317.971 52.4456,293.305 10,268.5C 9.61742,269.056 9.11742,269.389 8.5,269.5C 8.5,262.5 8.5,255.5 8.5,248.5 Z"/></g>
<g><path style="opacity:1" fill="#8a86bb" d="M 161.5,267.5 C 175.837,267.333 190.171,267.5 204.5,268C 210.897,271.859 217.23,275.692 223.5,279.5C 209.167,279.5 194.833,279.5 180.5,279.5C 174.335,275.25 168.002,271.25 161.5,267.5 Z"/></g>
<g><path style="opacity:1" fill="#9f84b1" d="M 138.5,266.5 C 211.5,266.5 284.5,266.5 357.5,266.5C 354.375,267.479 351.042,267.813 347.5,267.5C 336.167,267.5 324.833,267.5 313.5,267.5C 294.83,267.333 276.164,267.5 257.5,268C 263.897,271.859 270.23,275.692 276.5,279.5C 258.833,279.5 241.167,279.5 223.5,279.5C 217.23,275.692 210.897,271.859 204.5,268C 190.171,267.5 175.837,267.333 161.5,267.5C 153.648,267.825 145.982,267.492 138.5,266.5 Z"/></g>
<g><path style="opacity:1" fill="#a8759e" d="M 313.5,267.5 C 319.833,271.5 326.167,275.5 332.5,279.5C 313.833,279.5 295.167,279.5 276.5,279.5C 270.23,275.692 263.897,271.859 257.5,268C 276.164,267.5 294.83,267.333 313.5,267.5 Z"/></g>
<g><path style="opacity:1" fill="#ba6a8c" d="M 357.5,261.5 C 405.445,288.939 453.279,316.606 501,344.5C 501.278,343.584 501.778,342.918 502.5,342.5C 502.5,345.167 502.5,347.833 502.5,350.5C 501.835,352.369 501.169,354.369 500.5,356.5C 449.273,327.059 398.273,297.392 347.5,267.5C 351.042,267.813 354.375,267.479 357.5,266.5C 357.5,264.833 357.5,263.167 357.5,261.5 Z"/></g>
<g><path style="opacity:1" fill="#6ba7d0" d="M 137.5,342.5 C 137.5,345.167 137.5,347.833 137.5,350.5C 94.9456,325.971 52.4456,301.305 10,276.5C 9.78997,274.942 9.28997,273.609 8.5,272.5C 8.5,271.5 8.5,270.5 8.5,269.5C 9.11742,269.389 9.61742,269.056 10,268.5C 52.4456,293.305 94.9456,317.971 137.5,342.5 Z"/></g>
<g><path style="opacity:1" fill="#6eaacb" d="M 8.5,272.5 C 9.28997,273.609 9.78997,274.942 10,276.5C 52.4456,301.305 94.9456,325.971 137.5,350.5C 137.5,354.5 137.5,358.5 137.5,362.5C 94.6622,337.914 51.6622,313.58 8.5,289.5C 8.5,283.833 8.5,278.167 8.5,272.5 Z"/></g>
<g><path style="opacity:1" fill="#b46e93" d="M 313.5,267.5 C 324.833,267.5 336.167,267.5 347.5,267.5C 398.273,297.392 449.273,327.059 500.5,356.5C 501.169,354.369 501.835,352.369 502.5,350.5C 502.5,355.833 502.5,361.167 502.5,366.5C 501.732,367.263 501.232,368.263 501,369.5C 453.279,341.606 405.445,313.939 357.5,286.5C 357.5,284.5 357.5,282.5 357.5,280.5C 349.35,279.507 341.017,279.174 332.5,279.5C 326.167,275.5 319.833,271.5 313.5,267.5 Z"/></g>
<g><path style="opacity:1" fill="#fefefe" d="M 357.5,280.5 C 357.5,282.5 357.5,284.5 357.5,286.5C 357.5,291.5 357.5,296.5 357.5,301.5C 357.5,307.167 357.5,312.833 357.5,318.5C 357.5,321.167 357.5,323.833 357.5,326.5C 357.5,330.5 357.5,334.5 357.5,338.5C 357.5,343.5 357.5,348.5 357.5,353.5C 357.5,357.5 357.5,361.5 357.5,365.5C 357.179,370.695 357.513,375.695 358.5,380.5C 358.792,386.044 360.459,391.044 363.5,395.5C 365.748,399.254 368.581,402.588 372,405.5C 373.421,409.468 372.254,412.135 368.5,413.5C 361.5,413.5 354.5,413.5 347.5,413.5C 333.167,413.5 318.833,413.5 304.5,413.5C 298.167,413.5 291.833,413.5 285.5,413.5C 277.5,413.5 269.5,413.5 261.5,413.5C 256.833,413.5 252.167,413.5 247.5,413.5C 240.167,413.5 232.833,413.5 225.5,413.5C 219.167,413.5 212.833,413.5 206.5,413.5C 200.167,413.5 193.833,413.5 187.5,413.5C 181.167,413.5 174.833,413.5 168.5,413.5C 161.663,414.308 155.329,412.975 149.5,409.5C 149.167,409.5 148.833,409.5 148.5,409.5C 144.338,405.999 141.338,401.665 139.5,396.5C 139.167,395.167 138.833,393.833 138.5,392.5C 138.5,355.167 138.5,317.833 138.5,280.5C 211.5,280.5 284.5,280.5 357.5,280.5 Z"/></g>
<g><path style="opacity:1" fill="#70aec5" d="M 8.5,289.5 C 51.6622,313.58 94.6622,337.914 137.5,362.5C 137.5,366.167 137.5,369.833 137.5,373.5C 95.2214,349.357 52.8881,325.19 10.5,301C 9.90109,299.378 9.23442,297.878 8.5,296.5C 8.5,294.167 8.5,291.833 8.5,289.5 Z"/></g>
<g><path style="opacity:0.997" fill="#ad7299" d="M 357.5,286.5 C 405.445,313.939 453.279,341.606 501,369.5C 501.232,368.263 501.732,367.263 502.5,366.5C 502.5,371.833 502.5,377.167 502.5,382.5C 501.577,383.303 500.577,383.47 499.5,383C 452.275,355.557 404.942,328.39 357.5,301.5C 357.5,296.5 357.5,291.5 357.5,286.5 Z"/></g>
<g><path style="opacity:0.996" fill="#73b2be" d="M 8.5,296.5 C 9.23442,297.878 9.90109,299.378 10.5,301C 52.8881,325.19 95.2214,349.357 137.5,373.5C 137.5,377.167 137.5,380.833 137.5,384.5C 94.3644,360.098 51.3644,335.431 8.5,310.5C 8.5,305.833 8.5,301.167 8.5,296.5 Z"/></g>
<g><path style="opacity:1" fill="#76b6b9" d="M 8.5,310.5 C 51.3644,335.431 94.3644,360.098 137.5,384.5C 137.194,387.385 137.527,390.052 138.5,392.5C 138.833,393.833 139.167,395.167 139.5,396.5C 96.3918,372.11 53.3918,347.443 10.5,322.5C 9.82434,323.602 9.15767,324.602 8.5,325.5C 8.5,320.5 8.5,315.5 8.5,310.5 Z"/></g>
<g><path style="opacity:0.999" fill="#a576a1" d="M 357.5,301.5 C 404.942,328.39 452.275,355.557 499.5,383C 500.577,383.47 501.577,383.303 502.5,382.5C 502.5,388.833 502.5,395.167 502.5,401.5C 454.302,373.569 405.969,345.902 357.5,318.5C 357.5,312.833 357.5,307.167 357.5,301.5 Z"/></g>
<g><path style="opacity:0.999" fill="#a079a6" d="M 357.5,318.5 C 405.969,345.902 454.302,373.569 502.5,401.5C 501.699,403.042 501.366,404.708 501.5,406.5C 500.778,406.918 500.278,407.584 500,408.5C 452.69,380.764 405.19,353.431 357.5,326.5C 357.5,323.833 357.5,321.167 357.5,318.5 Z"/></g>
<g><path style="opacity:0.996" fill="#79bab3" d="M 139.5,396.5 C 141.338,401.665 144.338,405.999 148.5,409.5C 147.448,409.649 146.448,409.483 145.5,409C 100.105,382.304 54.4378,356.137 8.5,330.5C 8.5,328.833 8.5,327.167 8.5,325.5C 9.15767,324.602 9.82434,323.602 10.5,322.5C 53.3918,347.443 96.3918,372.11 139.5,396.5 Z"/></g>
<g><path style="opacity:0.998" fill="#9b7cab" d="M 357.5,326.5 C 405.19,353.431 452.69,380.764 500,408.5C 500.278,407.584 500.778,406.918 501.5,406.5C 501.237,411.77 500.237,416.77 498.5,421.5C 498.586,420.504 498.252,419.671 497.5,419C 450.687,392.339 404.021,365.505 357.5,338.5C 357.5,334.5 357.5,330.5 357.5,326.5 Z"/></g>
<g><path style="opacity:1" fill="#7bbdae" d="M 8.5,330.5 C 54.4378,356.137 100.105,382.304 145.5,409C 146.448,409.483 147.448,409.649 148.5,409.5C 148.833,409.5 149.167,409.5 149.5,409.5C 149.414,410.496 149.748,411.329 150.5,412C 200.33,440.414 249.997,469.081 299.5,498C 303.301,500.416 307.301,501.916 311.5,502.5C 304.167,502.5 296.833,502.5 289.5,502.5C 287.525,499.654 284.859,497.487 281.5,496C 191.003,444.253 100.67,392.253 10.5,340C 9.9152,338.698 9.24853,337.531 8.5,336.5C 8.5,334.5 8.5,332.5 8.5,330.5 Z"/></g>
<g><path style="opacity:0.994" fill="#7dbfa9" d="M 8.5,336.5 C 9.24853,337.531 9.9152,338.698 10.5,340C 100.67,392.253 191.003,444.253 281.5,496C 284.859,497.487 287.525,499.654 289.5,502.5C 284.5,502.5 279.5,502.5 274.5,502.5C 274.611,501.883 274.944,501.383 275.5,501C 186.755,450.212 98.2547,399.046 10,347.5C 9.61742,348.056 9.11742,348.389 8.5,348.5C 8.5,344.5 8.5,340.5 8.5,336.5 Z"/></g>
<g><path style="opacity:0.998" fill="#9480b2" d="M 357.5,338.5 C 404.021,365.505 450.687,392.339 497.5,419C 498.252,419.671 498.586,420.504 498.5,421.5C 498.101,425.116 497.101,428.45 495.5,431.5C 493.692,431.509 492.025,431.009 490.5,430C 446.438,403.971 402.105,378.471 357.5,353.5C 357.5,348.5 357.5,343.5 357.5,338.5 Z"/></g>
<g><path style="opacity:0.996" fill="#7fc3a4" d="M 274.5,502.5 C 270.5,502.5 266.5,502.5 262.5,502.5C 178.183,454.253 94.0164,405.586 10,356.5C 9.81382,359.036 9.31382,361.369 8.5,363.5C 8.5,358.5 8.5,353.5 8.5,348.5C 9.11742,348.389 9.61742,348.056 10,347.5C 98.2547,399.046 186.755,450.212 275.5,501C 274.944,501.383 274.611,501.883 274.5,502.5 Z"/></g>
<g><path style="opacity:1" fill="#bac9df" d="M 156.5,279.5 C 164.5,279.5 172.5,279.5 180.5,279.5C 194.833,279.5 209.167,279.5 223.5,279.5C 241.167,279.5 258.833,279.5 276.5,279.5C 295.167,279.5 313.833,279.5 332.5,279.5C 341.017,279.174 349.35,279.507 357.5,280.5C 284.5,280.5 211.5,280.5 138.5,280.5C 138.5,317.833 138.5,355.167 138.5,392.5C 137.527,390.052 137.194,387.385 137.5,384.5C 137.5,380.833 137.5,377.167 137.5,373.5C 137.5,369.833 137.5,366.167 137.5,362.5C 137.5,358.5 137.5,354.5 137.5,350.5C 137.5,347.833 137.5,345.167 137.5,342.5C 137.5,337.833 137.5,333.167 137.5,328.5C 137.5,324.833 137.5,321.167 137.5,317.5C 137.5,313.167 137.5,308.833 137.5,304.5C 137.5,296.5 137.5,288.5 137.5,280.5C 143.645,279.51 149.978,279.177 156.5,279.5 Z"/></g>
<g><path style="opacity:0.994" fill="#82c69f" d="M 262.5,502.5 C 252.833,502.5 243.167,502.5 233.5,502.5C 235.631,501.686 237.964,501.186 240.5,501C 163.275,456.224 85.9417,411.724 8.5,367.5C 8.5,366.167 8.5,364.833 8.5,363.5C 9.31382,361.369 9.81382,359.036 10,356.5C 94.0164,405.586 178.183,454.253 262.5,502.5 Z"/></g>
<g><path style="opacity:0.999" fill="#8e84b8" d="M 357.5,353.5 C 402.105,378.471 446.438,403.971 490.5,430C 492.025,431.009 493.692,431.509 495.5,431.5C 494.618,435.593 492.951,439.26 490.5,442.5C 446.366,416.596 402.032,390.929 357.5,365.5C 357.5,361.5 357.5,357.5 357.5,353.5 Z"/></g>
<g><path style="opacity:0.998" fill="#85ca99" d="M 8.5,367.5 C 85.9417,411.724 163.275,456.224 240.5,501C 237.964,501.186 235.631,501.686 233.5,502.5C 231.5,502.5 229.5,502.5 227.5,502.5C 223.907,501.847 220.241,501.014 216.5,500C 148.092,459.934 79.4251,420.267 10.5,381C 9.88278,378.723 9.21611,376.556 8.5,374.5C 8.5,372.167 8.5,369.833 8.5,367.5 Z"/></g>
<g><path style="opacity:0.999" fill="#8888be" d="M 357.5,365.5 C 402.032,390.929 446.366,416.596 490.5,442.5C 489.674,445.485 488.341,448.151 486.5,450.5C 443.647,426.822 401.147,402.489 359,377.5C 358.517,378.448 358.351,379.448 358.5,380.5C 357.513,375.695 357.179,370.695 357.5,365.5 Z"/></g>
<g><path style="opacity:0.997" fill="#828bc4" d="M 486.5,450.5 C 484.646,454.221 482.313,457.554 479.5,460.5C 441.431,438.937 403.097,416.937 364.5,394.5C 363.893,394.624 363.56,394.957 363.5,395.5C 360.459,391.044 358.792,386.044 358.5,380.5C 358.351,379.448 358.517,378.448 359,377.5C 401.147,402.489 443.647,426.822 486.5,450.5 Z"/></g>
<g><path style="opacity:1" fill="#88ce92" d="M 8.5,374.5 C 9.21611,376.556 9.88278,378.723 10.5,381C 79.4251,420.267 148.092,459.934 216.5,500C 220.241,501.014 223.907,501.847 227.5,502.5C 219.167,502.5 210.833,502.5 202.5,502.5C 137.901,465.196 73.2342,427.862 8.5,390.5C 8.5,385.167 8.5,379.833 8.5,374.5 Z"/></g>
<g><path style="opacity:1" fill="#8bd28c" d="M 8.5,390.5 C 73.2342,427.862 137.901,465.196 202.5,502.5C 191.833,502.5 181.167,502.5 170.5,502.5C 173.641,501.679 176.975,501.179 180.5,501C 123.772,467.638 66.7717,434.804 9.5,402.5C 8.51658,398.702 8.18325,394.702 8.5,390.5 Z"/></g>
<g><path style="opacity:0.996" fill="#8ed784" d="M 9.5,402.5 C 66.7717,434.804 123.772,467.638 180.5,501C 176.975,501.179 173.641,501.679 170.5,502.5C 146.804,502.903 123.138,502.403 99.5,501C 52.8578,491.358 23.3578,463.525 11,417.5C 9.95017,412.552 9.45017,407.552 9.5,402.5 Z"/></g>
<g><path style="opacity:0.999" fill="#7a90cb" d="M 479.5,460.5 C 476.542,465.126 472.876,469.126 468.5,472.5C 435.167,452.833 401.833,433.167 368.5,413.5C 372.254,412.135 373.421,409.468 372,405.5C 368.581,402.588 365.748,399.254 363.5,395.5C 363.56,394.957 363.893,394.624 364.5,394.5C 403.097,416.937 441.431,438.937 479.5,460.5 Z"/></g>
<g><path style="opacity:1" fill="#79bab3" d="M 149.5,409.5 C 155.329,412.975 161.663,414.308 168.5,413.5C 218.104,442.307 267.77,471.14 317.5,500C 320.579,500.973 323.579,501.806 326.5,502.5C 321.5,502.5 316.5,502.5 311.5,502.5C 307.301,501.916 303.301,500.416 299.5,498C 249.997,469.081 200.33,440.414 150.5,412C 149.748,411.329 149.414,410.496 149.5,409.5 Z"/></g>
<g><path style="opacity:1" fill="#76b6b8" d="M 168.5,413.5 C 174.833,413.5 181.167,413.5 187.5,413.5C 237.665,442.803 287.998,471.97 338.5,501C 343.019,501.175 347.353,501.675 351.5,502.5C 343.167,502.5 334.833,502.5 326.5,502.5C 323.579,501.806 320.579,500.973 317.5,500C 267.77,471.14 218.104,442.307 168.5,413.5 Z"/></g>
<g><path style="opacity:1" fill="#73b2be" d="M 187.5,413.5 C 193.833,413.5 200.167,413.5 206.5,413.5C 256.665,442.803 306.998,471.97 357.5,501C 355.618,501.198 353.952,501.698 352.5,502.5C 352.167,502.5 351.833,502.5 351.5,502.5C 347.353,501.675 343.019,501.175 338.5,501C 287.998,471.97 237.665,442.803 187.5,413.5 Z"/></g>
<g><path style="opacity:1" fill="#71afc4" d="M 206.5,413.5 C 212.833,413.5 219.167,413.5 225.5,413.5C 274.437,441.973 323.437,470.473 372.5,499C 377.097,500.878 381.764,502.045 386.5,502.5C 375.167,502.5 363.833,502.5 352.5,502.5C 353.952,501.698 355.618,501.198 357.5,501C 306.998,471.97 256.665,442.803 206.5,413.5 Z"/></g>
<g><path style="opacity:1" fill="#6eaaca" d="M 225.5,413.5 C 232.833,413.5 240.167,413.5 247.5,413.5C 297.665,442.803 347.998,471.97 398.5,501C 395.635,501.183 392.969,501.683 390.5,502.5C 389.167,502.5 387.833,502.5 386.5,502.5C 381.764,502.045 377.097,500.878 372.5,499C 323.437,470.473 274.437,441.973 225.5,413.5 Z"/></g>
<g><path style="opacity:0.999" fill="#6ba7d0" d="M 247.5,413.5 C 252.167,413.5 256.833,413.5 261.5,413.5C 311.465,442.485 361.465,471.485 411.5,500.5C 404.721,501.983 397.721,502.65 390.5,502.5C 392.969,501.683 395.635,501.183 398.5,501C 347.998,471.97 297.665,442.803 247.5,413.5 Z"/></g>
<g><path style="opacity:0.999" fill="#68a3d6" d="M 261.5,413.5 C 269.5,413.5 277.5,413.5 285.5,413.5C 325.104,436.64 364.77,459.807 404.5,483C 413.156,487.897 421.823,492.397 430.5,496.5C 424.337,498.624 418.004,499.957 411.5,500.5C 361.465,471.485 311.465,442.485 261.5,413.5 Z"/></g>
<g><path style="opacity:0.998" fill="#659fdd" d="M 285.5,413.5 C 291.833,413.5 298.167,413.5 304.5,413.5C 349.336,440.086 394.336,466.419 439.5,492.5C 436.5,493.833 433.5,495.167 430.5,496.5C 421.823,492.397 413.156,487.897 404.5,483C 364.77,459.807 325.104,436.64 285.5,413.5 Z"/></g>
<g><path style="opacity:0.999" fill="#6b98da" d="M 304.5,413.5 C 318.833,413.5 333.167,413.5 347.5,413.5C 384.109,435.478 421.109,456.978 458.5,478C 459.252,478.671 459.586,479.504 459.5,480.5C 453.532,485.491 446.866,489.491 439.5,492.5C 394.336,466.419 349.336,440.086 304.5,413.5 Z"/></g>
<g><path style="opacity:0.999" fill="#7394d2" d="M 347.5,413.5 C 354.5,413.5 361.5,413.5 368.5,413.5C 401.833,433.167 435.167,452.833 468.5,472.5C 466.105,475.861 463.105,478.528 459.5,480.5C 459.586,479.504 459.252,478.671 458.5,478C 421.109,456.978 384.109,435.478 347.5,413.5 Z"/></g>
</svg>
